<?xml version="1.0" encoding="UTF-8"?>
<svg width="56px" height="55px" viewBox="0 0 56 55" version="1.1" xmlns="http://www.w3.org/2000/svg" xmlns:xlink="http://www.w3.org/1999/xlink">
    <!-- Generator: Sketch 56.3 (81716) - https://sketch.com -->
    <title>编组</title>
    <desc>Created with Sketch.</desc>
    <g id="Page-1" stroke="none" stroke-width="1" fill="none" fill-rule="evenodd">
        <g id="website-banner-1" transform="translate(-383.000000, -444.000000)">
            <g id="编组" transform="translate(383.000000, 443.000000)">
                <g>
                    <path d="M33.7982909,46.3708 C34.0082909,49.3858909 31.9757455,52.1718909 28.9352,52.7815273 C28.5317455,52.8629818 28.1257455,52.9024364 27.7235636,52.9024364 C26.5310182,52.9024364 25.3652,52.5524364 24.3508364,51.8766182 C23.2066545,51.1142545 22.3959273,50.0031636 21.9695636,48.7189818 C17.0402909,48.4428 12.3401091,46.6813455 8.35774545,43.7718909 C11.2888364,51.9313455 20.1712,56.9013455 29.3895636,55.0813455 C38.6066545,53.2626182 44.9333818,45.2877091 44.5439273,36.6255273 C41.9615636,40.8395273 38.2630182,44.2428 33.7982909,46.3708" id="Fill-1" fill="#78ABF6"></path>
                    <path d="M33.2600545,9.26405455 C33.7806,11.8553273 32.1018727,14.3766 29.5106,14.8958727 C26.9206,15.4151455 24.3993273,13.7376909 23.8787818,11.1464182 C23.3595091,8.55641818 25.0382364,6.03514545 27.6282364,5.5146 C30.2182364,4.99532727 32.7407818,6.67405455 33.2600545,9.26405455" id="Fill-3" fill="#F68989"></path>
                    <path d="M51.1006364,28.5482909 C51.6199091,31.1395636 49.9411818,33.6608364 47.3511818,34.1801091 C44.7611818,34.6993818 42.2399091,33.0219273 41.7193636,30.4306545 C41.1988182,27.8406545 42.8788182,25.3193818 45.4688182,24.7988364 C48.0588182,24.2795636 50.5800909,25.9570182 51.1006364,28.5482909" id="Fill-5" fill="#F6C480"></path>
                    <path d="M32.4074545,45.8096545 C32.9267273,48.4009273 31.248,50.9222 28.658,51.4414727 C26.068,51.9607455 23.5467273,50.2832909 23.0261818,47.6920182 C22.5056364,45.1020182 24.1856364,42.5807455 26.7756364,42.0602 C29.3656364,41.5409273 31.8869091,43.2183818 32.4074545,45.8096545" id="Fill-7" fill="#78ABF6"></path>
                    <path d="M13.5551818,26.6789091 C14.0744545,29.2701818 12.3957273,31.7914545 9.80572727,32.3107273 C7.21572727,32.83 4.69445455,31.1525455 4.17390909,28.5612727 C3.65336364,25.9712727 5.33336364,23.45 7.92336364,22.9294545 C10.5133636,22.4101818 13.0346364,24.0876364 13.5551818,26.6789091" id="Fill-9" fill="#F6C480"></path>
                    <g transform="translate(11.454545, 0.729655)" fill="#F68989" id="Fill-11">
                        <path d="M15.9141818,3.48956364 C17.5089091,3.16756364 19.1405455,3.48956364 20.4985455,4.3932 C21.5574545,5.09829091 22.3401818,6.09483636 22.792,7.25683636 C27.7441818,7.49229091 32.4774545,9.22701818 36.4941818,12.1262909 C33.5134545,3.98338182 24.6018182,-0.934436364 15.3949091,0.941563636 C6.188,2.81756364 -0.0903636364,10.8281091 0.351272727,19.4877455 C2.90818182,15.2622909 6.58254545,11.8373818 11.032,9.68265455 C10.9314545,6.75156364 12.9461818,4.08392727 15.9141818,3.48956364"></path>
                    </g>
                    <path d="M54.894,27.5377455 C52.7685455,18.3855636 44.5887273,12.3273818 35.9443636,13.0057455 C40.2385455,15.4455636 43.7601818,19.0244727 46.0358182,23.4115636 C47.3021818,23.3301091 48.5570909,23.6304727 49.6529091,24.3164727 C51.0350909,25.1832 51.9972727,26.5361091 52.3612727,28.1257455 C52.7252727,29.7153818 52.4490909,31.3521091 51.5823636,32.7342909 C50.9078182,33.8110182 49.9316364,34.6217455 48.7836364,35.1041091 C48.6830909,40.0613818 47.0769091,44.8404727 44.2896364,48.9348364 C52.3485455,45.7326545 57.0207273,36.6899273 54.894,27.5377455" id="Fill-13" fill="#F6C480"></path>
                    <path d="M9.0496,33.6547273 C8.99741818,33.656 8.94523636,33.67 8.89305455,33.67 C7.69541818,33.67 6.52323636,33.3161818 5.50505455,32.634 C4.15087273,31.7252727 3.23069091,30.3430909 2.91505455,28.7432727 C2.33214545,25.7816364 4.01469091,22.9052727 6.74723636,21.8692727 C7.03487273,16.9298182 8.81287273,12.2245455 11.7414182,8.24345455 C3.57178182,11.1490909 -1.42749091,20.0149091 0.363236364,29.2383636 C2.15269091,38.4618182 10.1059636,44.8152727 18.7694182,44.4525455 C14.5579636,41.8523636 11.1623273,38.136 9.0496,33.6547273" id="Fill-15" fill="#F6C480"></path>
                </g>
            </g>
        </g>
    </g>
</svg>