<?xml version="1.0" encoding="UTF-8"?>
<svg width="67px" height="47px" viewBox="0 0 67 47" version="1.1" xmlns="http://www.w3.org/2000/svg" xmlns:xlink="http://www.w3.org/1999/xlink">
    <!-- Generator: Sketch 56.3 (81716) - https://sketch.com -->
    <title>编组 7</title>
    <desc>Created with Sketch.</desc>
    <g id="Page-1" stroke="none" stroke-width="1" fill="none" fill-rule="evenodd">
        <g id="备份-4" transform="translate(-661.000000, -443.000000)" fill-rule="nonzero">
            <g id="编组-7" transform="translate(661.000000, 443.000000)">
                <path d="M56.5,22 C52.9101491,22 50,19.0898509 50,15.5 C50,11.9101491 52.9101491,9 56.5,9 C58.2239072,9 59.8772076,9.68481946 61.0961941,10.9038059 C62.3151805,12.1227924 63,13.7760928 63,15.5 C63,19.0898509 60.0898509,22 56.5,22 Z M67,34.632274 C67,28.7602312 62.2989899,24 56.5,24 C50.7010101,24 46,28.7602312 46,34.632274 L46,41 L67,41 L67,34.632274 Z" id="形状" fill="#F6C480"></path>
                <path d="M17,15.5 C17,19.0898509 14.0898509,22 10.5,22 C6.91014913,22 4,19.0898509 4,15.5 C4,11.9101491 6.91014913,9 10.5,9 C12.2239072,9 13.8772076,9.68481946 15.0961941,10.9038059 C16.3151805,12.1227924 17,13.7760928 17,15.5 Z M21,34.4081633 C21,28.6598934 16.2989899,24 10.5,24 C4.70101013,24 0,28.6598934 0,34.4081633 L0,41 L21,41 L21,34.4081633 Z" id="形状" fill="#F68989"></path>
                <path d="M30,19.0724638 C24.5016985,19.0724638 20.0444444,14.8029473 20.0444444,9.53623188 C20.0444444,4.26951644 24.5016985,0 30,0 C35.4983015,0 39.9555556,4.26951644 39.9555556,9.53623188 C39.9555556,14.8029473 35.4983015,19.0724638 30,19.0724638 Z M46,37.1231884 C46,28.6588243 38.836556,21.7971014 30,21.7971014 C21.163444,21.7971014 14,28.6588243 14,37.1231884 L14,47 L46,47 L46,37.1231884 Z" id="形状" fill="#FFFFFF"></path>
                <path d="M38,19.0724638 C32.5016985,19.0724638 28.0444444,14.8029473 28.0444444,9.53623188 C28.0444444,4.26951644 32.5016985,0 38,0 C43.4983015,0 47.9555556,4.26951644 47.9555556,9.53623188 C47.9555556,14.8029473 43.4983015,19.0724638 38,19.0724638 Z M54,37.1231884 C54,28.6588243 46.836556,21.7971014 38,21.7971014 C29.163444,21.7971014 22,28.6588243 22,37.1231884 L22,47 L54,47 L54,37.1231884 Z" id="形状" fill="#FFFFFF"></path>
                <path d="M34,21.0724638 C28.5016985,21.0724638 24.0444444,16.8029473 24.0444444,11.5362319 C24.0444444,6.26951644 28.5016985,2 34,2 C39.4983015,2 43.9555556,6.26951644 43.9555556,11.5362319 C43.9555556,16.8029473 39.4983015,21.0724638 34,21.0724638 Z M50,39.1231884 C50,30.6588243 42.836556,23.7971014 34,23.7971014 C25.163444,23.7971014 18,30.6588243 18,39.1231884 L18,46 L50,46 L50,39.1231884 Z" id="形状" fill="#78ABF6"></path>
            </g>
        </g>
    </g>
</svg>