<?xml version="1.0" encoding="utf-8"?>
<!-- Generator: Adobe Illustrator 21.0.0, SVG Export Plug-In . SVG Version: 6.00 Build 0)  -->
<svg version="1.1" id="图层_1" xmlns="http://www.w3.org/2000/svg" xmlns:xlink="http://www.w3.org/1999/xlink" x="0px" y="0px"
	 viewBox="0 0 67 47" style="enable-background:new 0 0 67 47;" xml:space="preserve">
<style type="text/css">
	.st0{fill:#FFFFFF;}
</style>
<g>
	<path class="st0" d="M10.5,22c3.6,0,6.5-2.9,6.5-6.5c0-1.7-0.7-3.4-1.9-4.6S12.2,9,10.5,9C6.9,9,4,11.9,4,15.5S6.9,22,10.5,22z"/>
	<path class="st0" d="M14,37.1c0-3.9,1.5-7.4,3.9-10.1C16,25.2,13.4,24,10.5,24C4.7,24,0,28.7,0,34.4V41h14V37.1z"/>
</g>
<g>
	<path class="st0" d="M56.5,22c3.6,0,6.5-2.9,6.5-6.5c0-1.7-0.7-3.4-1.9-4.6S58.2,9,56.5,9c-3.6,0-6.5,2.9-6.5,6.5S52.9,22,56.5,22z
		"/>
	<path class="st0" d="M56.5,24c-2.6,0-5,1-6.9,2.6C52.3,29.4,54,33,54,37.1V41h13v-6.4C67,28.8,62.3,24,56.5,24z"/>
</g>
<path id="形状_4_" class="st0" d="M34,21.1c-5.5,0-10-4.3-10-9.5S28.5,2,34,2s10,4.3,10,9.5S39.5,21.1,34,21.1z M50,39.1
	c0-8.5-7.2-15.3-16-15.3s-16,6.9-16,15.3V46h32V39.1z"/>
</svg>
