<?xml version="1.0" encoding="UTF-8"?>
<svg width="83px" height="41px" viewBox="0 0 83 41" version="1.1" xmlns="http://www.w3.org/2000/svg" xmlns:xlink="http://www.w3.org/1999/xlink">
    <!-- Generator: Sketch 56.3 (81716) - https://sketch.com -->
    <title>编组</title>
    <desc>Created with Sketch.</desc>
    <defs>
        <polygon id="path-1" points="0.168756607 0.00884563953 9.31865248 0.00884563953 9.31865248 10.4389535 0.168756607 10.4389535"></polygon>
        <polygon id="path-3" points="0.0516974767 0.0988953488 14.1202582 0.0988953488 14.1202582 25.9825552 0.0516974767 25.9825552"></polygon>
    </defs>
    <g id="Page-1" stroke="none" stroke-width="1" fill="none" fill-rule="evenodd">
        <g id="备份-4" transform="translate(-939.000000, -449.000000)">
            <g id="编组" transform="translate(939.000000, 449.000000)">
                <polygon id="Fill-1" fill="#78ABF6" points="0.521678079 22.4453593 12.1156267 27.2605212 20.24279 5.58468292 9.29311913 1.23954489"></polygon>
                <g transform="translate(16.000000, 0.000000)">
                    <path d="M6.9298167,6.27271221 L0.0464806325,26.532157 L3.48814866,26.532157 L25.6778505,39.7182035 L28.0627453,39.7182035 L29.75351,37.6425 L29.75351,35.3228547 L32.8932169,36.7879709 C32.8932169,36.7879709 36.3953858,36.7879709 36.7576667,34.4681424 C37.1199475,32.148314 36.1537445,31.7820349 36.1537445,31.7820349 C36.1537445,31.7820349 39.8973736,34.5902965 41.950238,32.6367471 C44.0032836,30.6831977 42.9164411,29.7065145 42.7956204,28.6076773 C42.6747997,27.5088401 45.9353273,30.6831977 47.2638112,28.6076773 C48.5921139,26.532157 50.1174974,22.3598721 32.9334301,11.000093 C29.7937231,8.92438953 24.5004377,13.8955291 24.5004377,13.8955291 C24.5004377,13.8955291 17.0736804,16.398314 15.7451965,12.1251192 C14.4168938,7.85192442 16.4697582,6.27271221 16.4697582,6.27271221 L6.9298167,6.27271221 Z" id="Fill-2" fill="#F6C480"></path>
                    <path d="M35.8111899,0.343111919 C35.2735651,0.211800872 31.8213909,0.0821380814 31.2988008,0.264911337 C28.4621418,1.25661192 21.1047612,3.98612355 19.2560421,6.99712064 C17.082357,10.5379404 21.1871801,12.1612892 23.2400445,10.574202 C24.4602064,9.63066715 26.3812006,8.92851017 28.4509111,8.03845203 C30.0677705,7.34307122 31.9009116,7.38958866 33.4800938,8.1684811 C39.0501618,10.9157573 50.8563511,18.5654956 51.0374915,27.8750276 C53.4694828,21.3199142 52.3170675,15.874077 51.6801777,12.8575858 C51.4773005,11.8957369 49.4090391,8.30363808 48.7216112,7.60770785 C46.5584323,5.41754215 43.0568068,2.1135218 35.8111899,0.343111919" id="Fill-4" fill="#F68989"></path>
                    <path d="M6.32545979,30.2215029 C5.87442014,30.2215029 5.44457391,30.0773721 5.08229307,29.8046773 C4.63596307,29.4686163 4.34577611,28.9770698 4.26516862,28.4205087 C4.18456113,27.8637645 4.3233147,27.3086686 4.65552623,26.8575959 L4.67074203,26.8369012 L8.59007736,22.0976163 C8.98224637,21.5804302 9.59830495,21.2727558 10.2442517,21.2727558 C10.6952913,21.2727558 11.1253187,21.4168866 11.4875996,21.6897645 C12.4086986,22.383314 12.5999829,23.7052151 11.9140041,24.6366628 L11.8987883,24.6573576 L7.97963413,29.3966424 C7.5999638,29.8978953 7.02592981,30.1976948 6.3999085,30.2202209 C6.37509227,30.2211366 6.35027603,30.2215029 6.32545979,30.2215029" id="Fill-6" fill="#D38383"></path>
                    <path d="M10.2441974,20.3570032 L10.2441974,20.3570032 C9.32472857,20.3570032 8.44728436,20.7919596 7.88411879,21.5237852 L3.9923168,26.2297387 L3.95971153,26.2692968 L3.92927994,26.3106863 C3.4523372,26.9580846 3.25344502,27.7543753 3.36901261,28.5530468 C3.48476134,29.3517183 3.90102203,30.0569887 4.54135342,30.5391951 C5.0610453,30.9303811 5.67800958,31.1373288 6.32540545,31.1373288 C6.36109011,31.1373288 6.39659363,31.1365962 6.4322783,31.1353142 C7.3231269,31.1032648 8.14097591,30.6794799 8.6858463,29.9701805 L12.577286,25.2644102 L12.6100724,25.2250352 L12.640504,25.1836456 C13.1172656,24.5362474 13.3161578,23.7399567 13.2005902,22.941102 C13.0848415,22.1426137 12.6685808,21.4371602 12.0282494,20.9551369 C11.5087386,20.5639509 10.8917744,20.3570032 10.2441974,20.3570032 M10.2441974,22.1883985 C10.4887369,22.1883985 10.735269,22.265134 10.9462976,22.4240991 C11.467982,22.8167503 11.5759417,23.5624945 11.1875767,24.0897532 L7.27059617,28.826291 C7.04869916,29.1279218 6.71232139,29.2927474 6.36761117,29.3050177 C6.35348221,29.3055672 6.3395344,29.3059334 6.32540545,29.3059334 C6.08086588,29.3059334 5.83433376,29.229198 5.62312403,29.0702328 C5.10162075,28.6775817 4.99366106,27.9316544 5.38202613,27.4043956 L9.29882549,22.668041 C9.53014181,22.3541398 9.88481476,22.1883985 10.2441974,22.1883985" id="Fill-8" fill="#FFFFFF"></path>
                    <path d="M11.1075488,33.7478363 C10.6565092,33.7478363 10.2264818,33.6035224 9.86438212,33.3308276 C9.41823325,32.9949497 9.1280463,32.5034032 9.04743881,31.9468422 C8.96683132,31.390098 9.10540374,30.835002 9.43779642,30.3839294 L9.45138195,30.3654323 L14.4117313,24.2949061 C14.8037192,23.7764381 15.4208646,23.4676648 16.067717,23.4676648 C16.5187567,23.4676648 16.9486029,23.6117956 17.3108838,23.8846735 C17.7570326,24.2205515 18.0474007,24.712098 18.1278271,25.268659 C18.2086157,25.8254032 18.0698621,26.380316 17.7376506,26.8315718 L17.7238839,26.8500689 L12.7637157,32.9202288 C12.3838643,33.4233131 11.8089246,33.7240282 11.1818164,33.7465544 C11.1571813,33.7474701 11.1323651,33.7478363 11.1075488,33.7478363" id="Fill-10" fill="#D38383"></path>
                    <path d="M16.0675902,22.5518206 L16.0675902,22.5518206 C15.1459478,22.5518206 14.266511,22.9889747 13.7035266,23.7237305 L8.7676312,29.7642218 L8.73864873,29.799934 L8.71129653,29.8369282 C8.23453493,30.4843265 8.03564275,31.2806172 8.15121034,32.0792887 C8.26695907,32.8779602 8.68321976,33.5832305 9.32355116,34.0654369 C9.84324303,34.456623 10.4600262,34.6633875 11.1076032,34.6633875 C11.1429256,34.6633875 11.1786102,34.6628381 11.2141137,34.6615561 C12.1073172,34.6293235 12.9271587,34.2037073 13.4720291,33.4911113 L18.4075622,27.4509863 L18.4367258,27.4154573 L18.4638969,27.3784631 C18.9406585,26.7310648 19.1395507,25.9347741 19.0239831,25.1359195 C18.9084155,24.3374311 18.4919737,23.6319776 17.8516423,23.1499544 C17.3319504,22.7585852 16.7149861,22.5518206 16.0675902,22.5518206 M16.0675902,24.383216 C16.3121298,24.383216 16.5586619,24.4599515 16.7698717,24.6189166 C17.2913749,25.0115677 17.3995158,25.7573119 17.0109696,26.2845706 L12.0527939,32.3525328 C11.8307157,32.6541637 11.494338,32.8189892 11.1498089,32.8312596 C11.1356799,32.831809 11.121551,32.8319922 11.1076032,32.8319922 C10.8630636,32.8319922 10.6165315,32.7554398 10.4053218,32.5964747 C9.88381848,32.2038235 9.77585879,31.4578962 10.1642239,30.9306375 L15.1223995,24.8628584 C15.3535347,24.5489573 15.7082076,24.383216 16.0675902,24.383216" id="Fill-12" fill="#FFFFFF"></path>
                    <path d="M15.6714361,37.1993206 C15.2205776,37.1993206 14.7907314,37.0551898 14.4284505,36.7826782 C13.5069892,36.0889456 13.3155238,34.7668613 14.0015026,33.8352305 L14.0263188,33.802998 L18.6401465,28.0901433 C19.0321344,27.5702102 19.6500044,27.2605212 20.2979437,27.2605212 C20.7489833,27.2605212 21.1788295,27.404652 21.5411104,27.6773468 C21.9872592,28.0134078 22.2774462,28.5049544 22.3580537,29.0615154 C22.4386612,29.6180765 22.3000888,30.1731724 21.9676961,30.6244282 L21.9428798,30.6566608 L17.3292333,36.3696985 C16.9493818,36.8738817 16.3735364,37.1753294 15.7458848,37.1978555 C15.7210686,37.1987712 15.6962524,37.1993206 15.6714361,37.1993206" id="Fill-14" fill="#D38383"></path>
                    <path d="M20.2978531,26.3448235 L20.2978531,26.3448235 C19.3740369,26.3448235 18.4927888,26.783809 17.9298044,27.5216782 L13.3248525,33.2239108 L13.2991306,33.2555939 L13.2748578,33.288559 C12.290903,34.6251113 12.5655119,36.5218875 13.8872935,37.5168846 C14.4071665,37.9082538 15.0241308,38.1150183 15.6713456,38.1150183 C15.7068491,38.1150183 15.7423526,38.1142858 15.777675,38.1130038 C16.6732332,38.0807712 17.4947051,37.6531404 18.0395754,36.9377974 L22.6445273,31.235748 L22.6698869,31.2040648 L22.6941597,31.1712828 C23.1709213,30.5238846 23.3698135,29.7275939 23.2542459,28.9289224 C23.1386783,28.1302509 22.7222365,27.4249805 22.0819051,26.9429573 C21.5622132,26.5515881 20.945249,26.3448235 20.2978531,26.3448235 M20.2978531,28.1762189 C20.5423927,28.1762189 20.7889248,28.2527712 21.0001345,28.4119195 C21.5216378,28.8045706 21.6295975,29.5503148 21.2412324,30.0775735 L16.6167174,35.8041637 C16.3946393,36.1056113 16.0582615,36.2704369 15.7135513,36.2828904 C15.6994223,36.2832567 15.6854745,36.283623 15.6713456,36.283623 C15.426806,36.283623 15.1802739,36.2068875 14.9692453,36.0479224 C14.4475609,35.6552712 14.3396012,34.909527 14.7279662,34.3820852 L19.3526624,28.6556782 C19.5836164,28.3419602 19.9384705,28.1762189 20.2978531,28.1762189" id="Fill-16" fill="#FFFFFF"></path>
                    <path d="M20.9072638,40.1075581 C20.4564053,40.1075581 20.0265591,39.9634273 19.6642782,39.6909157 C18.7428169,38.9971831 18.5513515,37.6750988 19.2373303,36.7436512 L22.4056574,32.3635029 C22.8014492,31.8259884 23.4263837,31.5087907 24.0819309,31.5087907 C24.5329705,31.5087907 24.9629979,31.6531047 25.3252787,31.9259826 C25.7714276,32.2618605 26.0616146,32.753407 26.1420409,33.309968 C26.2228295,33.8665291 26.084076,34.421625 25.7518644,34.8728808 L22.5835373,39.2530291 C22.1991573,39.7747936 21.616972,40.0833837 20.9817125,40.1062762 C20.9568963,40.1071919 20.9320801,40.1075581 20.9072638,40.1075581" id="Fill-18" fill="#DD8E7F"></path>
                    <g transform="translate(17.751761, 30.584302)">
                        <mask id="mask-2" fill="white">
                            <use xlink:href="#path-1"></use>
                        </mask>
                        <g id="Clip-21"></g>
                        <path d="M6.33031435,0.00884563953 L6.33013321,0.00884563953 C5.38965214,0.00884563953 4.49318819,0.463947384 3.93201516,1.22617413 L3.92730551,1.23240087 L3.92277699,1.23862762 L0.753725299,5.61969157 C-0.224070703,6.95587762 0.0521684417,8.84770901 1.37141414,9.84087471 C1.89128715,10.2322439 2.50825143,10.4390084 3.15546616,10.4390084 C3.19096969,10.4390084 3.22665435,10.4382759 3.26233901,10.4369939 C4.17383762,10.4042119 5.00907611,9.96119738 5.55358422,9.22186308 L5.55829387,9.2154532 L5.56282238,9.20922645 L8.73223636,4.82761308 C9.20483172,4.18167994 9.40173136,3.38850262 9.28652605,2.59294448 C9.17095846,1.7944561 8.75451663,1.08900262 8.11418524,0.60697936 C7.5946745,0.215793314 6.97771022,0.00884563953 6.33031435,0.00884563953 M6.33031435,1.84024099 C6.57485392,1.84024099 6.8212049,1.91697645 7.03241463,2.07594157 C7.55391791,2.46859273 7.66205874,3.21433692 7.27369368,3.74159564 L4.10065689,8.12815378 C3.87875987,8.42960145 3.54238211,8.59442703 3.19767188,8.60688052 C3.18354293,8.6072468 3.16941398,8.60761308 3.15546616,8.60761308 C2.91092659,8.60761308 2.66439448,8.53087762 2.45318475,8.37209564 C1.93168147,7.97926134 1.82372178,7.23351715 2.21208684,6.70607529 L5.38494249,2.31988343 C5.61607767,2.00598227 5.97093175,1.84024099 6.33031435,1.84024099" id="Fill-20" fill="#FFFFFF" mask="url(#mask-2)"></path>
                    </g>
                    <g transform="translate(51.900459, 4.761628)">
                        <mask id="mask-4" fill="white">
                            <use xlink:href="#path-3"></use>
                        </mask>
                        <g id="Clip-23"></g>
                        <path d="M0.0516974767,0.0988953488 L14.1203307,0.0988953488 L14.1203307,25.9825552 L2.16506279,25.9825552 C2.16506279,25.9825552 9.3501788,13.0408169 0.0516974767,0.0988953488" id="Fill-22" fill="#78ABF6" mask="url(#mask-4)"></path>
                    </g>
                </g>
            </g>
        </g>
    </g>
</svg>