<?xml version="1.0" encoding="utf-8"?>
<!-- Generator: Adobe Illustrator 21.0.0, SVG Export Plug-In . SVG Version: 6.00 Build 0)  -->
<svg version="1.1" id="图层_1" xmlns="http://www.w3.org/2000/svg" xmlns:xlink="http://www.w3.org/1999/xlink" x="0px" y="0px"
	 viewBox="0 0 83 41" style="enable-background:new 0 0 83 41;" xml:space="preserve">
<style type="text/css">
	.st0{fill:#FFFFFF;}
	.st1{filter:url(#Adobe_OpacityMaskFilter);}
	.st2{mask:url(#mask-4);fill:#FFFFFF;}
</style>
<polygon id="Fill-1" class="st0" points="0.5,22.4 12.1,27.3 20.2,5.6 9.3,1.2 "/>
<path id="Fill-4" class="st0" d="M51.8,0.3c-0.5-0.1-4-0.3-4.5-0.1c-2.8,1-10.2,3.7-12,6.7c-2.2,3.5,1.9,5.2,4,3.6
	c1.2-0.9,3.1-1.6,5.2-2.5c1.6-0.7,3.4-0.6,5,0.1c5.6,2.7,17.4,10.4,17.6,19.7c2.4-6.6,1.3-12,0.6-15c-0.2-1-2.3-4.6-3-5.2
	C62.6,5.4,59.1,2.1,51.8,0.3"/>
<path class="st0" d="M25.3,22.7l-3.9,4.7c-0.4,0.5-0.3,1.3,0.2,1.7c0.2,0.2,0.5,0.2,0.7,0.2c0,0,0,0,0,0c0.3,0,0.7-0.2,0.9-0.5
	l3.9-4.7c0.4-0.5,0.3-1.3-0.2-1.7c-0.2-0.2-0.5-0.2-0.7-0.2C25.9,22.2,25.5,22.4,25.3,22.7z"/>
<path class="st0" d="M27.1,32.8c0.3,0,0.7-0.2,0.9-0.5l5-6.1c0.4-0.5,0.3-1.3-0.2-1.7c-0.2-0.2-0.5-0.2-0.7-0.2
	c-0.4,0-0.7,0.2-0.9,0.5l-5,6.1c-0.4,0.5-0.3,1.3,0.2,1.7C26.6,32.8,26.9,32.8,27.1,32.8C27.1,32.8,27.1,32.8,27.1,32.8z"/>
<path class="st0" d="M35.4,28.7l-4.6,5.7c-0.4,0.5-0.3,1.3,0.2,1.7c0.2,0.2,0.5,0.2,0.7,0.2c0,0,0,0,0,0c0.3,0,0.7-0.2,0.9-0.5
	l4.6-5.7c0.4-0.5,0.3-1.3-0.2-1.7c-0.2-0.2-0.5-0.2-0.7-0.2C35.9,28.2,35.6,28.3,35.4,28.7z"/>
<path class="st0" d="M36.2,39c0.2,0.2,0.5,0.2,0.7,0.2c0,0,0,0,0,0c0.3,0,0.7-0.2,0.9-0.5l3.2-4.4c0.4-0.5,0.3-1.3-0.2-1.7
	c-0.2-0.2-0.5-0.2-0.7-0.2c-0.4,0-0.7,0.2-0.9,0.5L36,37.3C35.6,37.8,35.7,38.6,36.2,39z"/>
<g transform="translate(51.900459, 4.761628)">
	<defs>
		<filter id="Adobe_OpacityMaskFilter" filterUnits="userSpaceOnUse" x="16.1" y="0.1" width="14.1" height="25.9">
			<feColorMatrix  type="matrix" values="1 0 0 0 0  0 1 0 0 0  0 0 1 0 0  0 0 0 1 0"/>
		</filter>
	</defs>
	<mask maskUnits="userSpaceOnUse" x="16.1" y="0.1" width="14.1" height="25.9" id="mask-4">
		<g class="st1">
			<polygon id="path-3" class="st0" points="16.1,0.1 30.1,0.1 30.1,26 16.1,26 			"/>
		</g>
	</mask>
	<path id="Fill-22" class="st2" d="M16.1,0.1h14.1V26h-12C18.2,26,25.4,13,16.1,0.1"/>
</g>
<path class="st0" d="M48.9,11c-3.1-2.1-8.4,2.9-8.4,2.9s-7.4,2.5-8.8-1.8c-1.3-4.3,0.7-5.9,0.7-5.9h-9.5L16,26.5h3.4l0.2,0.1
	c0.1-0.1,0.1-0.2,0.2-0.4l0,0l0,0l3.9-4.7c0.6-0.7,1.4-1.2,2.4-1.2c0.6,0,1.3,0.2,1.8,0.6c0.6,0.5,1.1,1.2,1.2,2c0,0.2,0,0.4,0,0.5
	c0,0.1,0,0.1,0,0.2c0,0.1,0,0.2-0.1,0.3c0,0.1,0,0.1,0,0.2c0,0.2-0.1,0.3-0.2,0.4c0,0,0,0,0,0l0.7-0.9c0.6-0.7,1.4-1.2,2.4-1.2
	c0.6,0,1.3,0.2,1.8,0.6c0.6,0.5,1.1,1.2,1.2,2c0.1,0.6,0,1.1-0.2,1.6c0.5-0.3,1-0.4,1.5-0.4c0.6,0,1.3,0.2,1.8,0.6
	c0.6,0.5,1.1,1.2,1.2,2c0.1,0.7,0,1.4-0.4,1.9c0.4-0.2,0.8-0.3,1.2-0.3h0c0.6,0,1.3,0.2,1.8,0.6c0.6,0.5,1.1,1.2,1.2,2
	c0.1,0.8-0.1,1.6-0.6,2.2l-2.4,3.3l1.6,1h2.4l1.7-2.1v-2.3l3.1,1.5c0,0,3.5,0,3.9-2.3c0.3-1.7-0.2-2.3-0.4-2.6
	c0.8,0.5,3.8,2.4,5.6,0.7c2.1-2,1-2.9,0.8-4c-0.1-1.1,3.1,2.1,4.5,0C64.6,26.5,66.1,22.4,48.9,11z"/>
</svg>
