<?xml version="1.0" encoding="UTF-8"?>
<svg width="50px" height="47px" viewBox="0 0 50 47" version="1.1" xmlns="http://www.w3.org/2000/svg" xmlns:xlink="http://www.w3.org/1999/xlink">
    <!-- Generator: Sketch 56.3 (81716) - https://sketch.com -->
    <title>settings_1236227_easyicon.net</title>
    <desc>Created with Sketch.</desc>
    <g id="Page-1" stroke="none" stroke-width="1" fill="none" fill-rule="evenodd">
        <g id="备份-4" transform="translate(-1252.000000, -444.000000)" fill-rule="nonzero">
            <g id="settings_1236227_easyicon.net" transform="translate(1250.000000, 436.000000)">
                <g id="编组-5" transform="translate(27.884410, 30.890562) rotate(16.000000) translate(-27.884410, -30.890562) translate(9.384410, 6.390562)">
                    <polygon id="路径" fill="#F6C480" transform="translate(24.922981, 14.990254) rotate(-54.975127) translate(-24.922981, -14.990254) " points="14.9434007 13.2477457 34.8876754 13.3354163 34.9025618 16.7327632 14.9582872 16.6450926"></polygon>
                    <path d="M35.1657495,6.7212903 L36.7683944,2.26248263 C36.8337319,2.08062515 36.7678022,1.87819468 36.6071232,1.76756633 L35.3799224,0.922618058 L34.1527216,0.0776697837 C33.9920426,-0.0329585651 33.7760931,-0.0247099601 33.624593,0.0979516476 L29.9114074,3.10374329 C29.6014983,3.35459793 29.4045974,3.71530457 29.3631446,4.10784112 L29.0790941,6.80125324 L30.4978661,7.77798511 L31.9166382,8.75471698 L34.3936414,7.57109069 C34.754577,7.39874337 35.0320148,7.0933509 35.1657495,6.7212903 L35.1657495,6.7212903 Z" id="路径" fill="#F6C480"></path>
                    <path d="M19.114267,28.4480955 C19.0909438,28.4336819 19.0678867,28.4181074 19.0454503,28.4009852 L14.9173401,25.2479844 C14.8948151,25.2308621 14.8736203,25.2125791 14.8532236,25.1936189 C14.8259098,25.1682742 14.7876882,25.1626635 14.7552309,25.1792053 C14.7227735,25.1957471 14.7021995,25.2314426 14.7026429,25.2705238 C14.7079638,25.7952178 14.565187,26.2993071 14.2896545,26.7284263 C13.9052215,27.3274133 13.3006817,27.7111635 12.6310499,27.7812968 C12.592917,27.785263 12.5611691,27.8146706 12.5515028,27.8551061 C12.5417479,27.8954449 12.5561143,27.938202 12.5874187,27.9621924 L17.504437,31.7178562 C17.5202222,31.7298514 17.5384906,31.7358491 17.5568476,31.7358491 C17.5750272,31.7358491 17.5932956,31.7299482 17.6089921,31.7180497 C17.6403853,31.6943495 17.654929,31.6515923 17.6453514,31.6111568 C17.4766798,30.9009239 17.6004787,30.1499653 17.9850005,29.5508816 C18.260533,29.1216656 18.6460302,28.802825 19.0996346,28.6288943 C19.1334221,28.6159318 19.1571887,28.582558 19.1603812,28.5436703 C19.163485,28.5046858 19.1454827,28.4672491 19.114267,28.4480955 L19.114267,28.4480955 Z" id="路径" fill="#CE6C74"></path>
                    <path d="M15.3206196,27.2651739 C15.6595246,26.7634965 15.8416296,26.1786354 15.8546043,25.5681133 L13.9044514,24.1525606 C13.8810786,24.1356759 13.8590861,24.1176464 13.8379218,24.0989491 C13.8095801,24.0739559 13.76992,24.068423 13.7362411,24.0847354 C13.7025623,24.1010478 13.6812139,24.1362482 13.681674,24.1747874 C13.6871951,24.6922049 13.539045,25.1893034 13.2531428,25.6124716 C12.8542416,26.2031517 12.2269499,26.58158 11.5321165,26.6507407 C11.4925485,26.6546518 11.4596058,26.6836516 11.4495757,26.7235264 C11.4394537,26.7633057 11.4543607,26.8054699 11.4868433,26.8291276 L13.7236346,28.4528302 C14.3661093,28.2569861 14.9306442,27.8425943 15.3206196,27.2651739 L15.3206196,27.2651739 Z" id="路径" fill="#FC2B3A"></path>
                    <path d="M22.0359802,23.9442765 L17.5674198,20.9664383 C17.1103785,20.6618389 16.4804467,20.7675443 16.160489,21.2025166 L14.9353764,22.8676721 C14.6153227,23.3026444 14.7263911,23.9021588 15.1834324,24.2066669 L19.6519928,27.1845051 C20.1090341,27.4891044 20.7389659,27.3833991 21.0589236,26.9484268 L22.2840362,25.2832713 C22.60409,24.8483904 22.4930215,24.2488759 22.0359802,23.9442765 Z" id="路径" fill="#FF8088"></path>
                    <path d="M18.5527628,24.2065755 C18.1139797,23.9019761 18.0073483,23.302553 18.3145241,22.8675807 L18.9328387,21.9922458 L17.4549295,20.9664383 C17.0161465,20.6618389 16.4113797,20.7675443 16.1042039,21.2025166 L14.928033,22.8676721 C14.6208572,23.3026444 14.7273964,23.9021588 15.1661795,24.2066669 L19.4562264,27.1845051 C19.8950095,27.4891044 20.4997762,27.3833991 20.806952,26.9484268 L21.3648084,26.1586976 L18.5527628,24.2065755 Z" id="路径" fill="#FF646F"></path>
                    <path d="M1.03779135,43.6285361 L2.66364767,44.8679245 L13.6505226,27.7860656 L12.0246663,26.5466771 C11.3757869,26.0520168 10.481383,26.2237393 10.0270028,26.9301409 L0.685552957,41.4537826 C0.231172751,42.1601843 0.388911905,43.1338757 1.03779135,43.6285361 Z" id="路径" fill="#F68989"></path>
                    <path d="M17.4469072,30.7865583 L15.8209621,29.5471698 L4.83419612,46.6290288 L6.46014128,47.8684172 C7.10901968,48.3630776 8.00342211,48.1913551 8.45780159,47.4849534 L17.7992365,32.9613117 C18.2535245,32.2549101 18.0957856,31.2812186 17.4469072,30.7865583 Z" id="路径" fill="#F68989"></path>
                    <polygon id="路径" fill="#F68989" transform="translate(9.053781, 37.436003) rotate(-54.975127) translate(-9.053781, -37.436003) " points="-1.06068818 35.5070997 19.1517346 35.5959489 19.1682494 39.3649063 -1.04417339 39.2760571"></polygon>
                </g>
                <g id="编组-6" transform="translate(28.169138, 31.852662) rotate(-15.000000) translate(-28.169138, -31.852662) translate(7.169138, 4.852662)">
                    <path d="M17.1126094,19.9029558 C21.4119153,25.9847254 28.9954781,36.7166827 32.5832724,41.7892192 C33.0243071,42.4128414 33.6240007,42.9172816 34.333904,43.2098105 C36.214125,43.9845903 37.5361524,45.820962 37.5361524,47.9628466 C37.5361524,49.934879 36.4156379,51.6478805 34.770501,52.5118729 C34.9517386,52.6071298 35.1392045,52.6920746 35.3320708,52.7659035 C34.6910668,53.0102752 33.9891269,53.1331393 33.2547596,53.1050395 C33.1353886,53.1004643 33.0169844,53.091832 32.8996871,53.0792782 C32.6484434,53.1060083 32.39184,53.1150172 32.1311776,53.1050168 C29.4765521,53.0031792 27.3004483,50.8911386 27.1483472,48.2654526 C27.1475641,48.2506275 27.1467811,48.2357056 27.1459981,48.2208805 C27.107826,47.4467789 26.8606861,46.6982578 26.4117234,46.0633957 C24.7966517,43.7799461 10.5014907,23.5547613 8.88309117,21.2665639 C11.49837,20.7866383 13.7322213,19.207816 15.0570871,16.9957788 C15.2287415,17.2384727 15.4182687,17.5064739 15.6239487,17.7973469 C15.8178682,17.5407325 15.9985155,17.2732368 16.1648486,16.9957788 C16.6125619,17.6282189 17.1826371,18.4337153 17.8429407,19.3668237 C17.6088836,19.5572431 17.3651365,19.7362222 17.1126094,19.9029558 Z M32.2541453,49.5707676 C32.2804798,49.5721629 32.3069992,49.5728694 32.3336855,49.5728694 C33.1425427,49.5728694 33.7981242,48.9237636 33.7981242,48.1231125 C33.7981242,47.3224614 33.1424448,46.6733556 32.3336855,46.6733556 C32.1005319,46.6733556 31.8801006,46.7273018 31.6844332,46.8232732 C31.8594276,47.2425048 31.9624728,47.6899888 31.9930311,48.1472591 C31.9940108,48.2019084 31.9983214,48.2556857 32.0051791,48.3087847 C32.0343386,48.7463127 32.1197242,49.1692995 32.2541453,49.5707676 Z" id="形状结合" fill="#FFFFFF"></path>
                    <path d="M20.8561944,13.6591131 C25.1555003,19.7408827 32.7390631,30.47284 36.3268574,35.5453765 C36.767892,36.1689987 37.3675856,36.673439 38.077489,36.9659678 C39.95771,37.7407476 41.2797374,39.5771194 41.2797374,41.7190039 C41.2797374,43.6910363 40.1592229,45.4040378 38.5140859,46.2680302 C38.6953236,46.3632872 38.8827895,46.4482319 39.0756557,46.5220608 C38.4346518,46.7664325 37.7327119,46.8892966 36.9983445,46.8611968 C36.8789736,46.8566216 36.7605693,46.8479893 36.643272,46.8354355 C36.3920284,46.8621656 36.1354249,46.8711745 35.8747626,46.8611742 C33.2201371,46.7593365 31.0440333,44.6472959 30.8919321,42.0216099 C30.8911491,42.0067849 30.8903661,41.9918629 30.8895831,41.9770378 C30.851411,41.2029362 30.604271,40.4544151 30.1553083,39.819553 C28.5402366,37.5361034 14.2450757,17.3109186 12.6266761,15.0227212 C15.2419549,14.5427956 17.4758063,12.9639733 18.8006721,10.7519361 C18.9723265,10.99463 19.1618537,11.2626312 19.3675336,11.5535042 C19.5614532,11.2968898 19.7421005,11.0293941 19.9084336,10.7519361 C20.3561469,11.3843762 20.926222,12.1898726 21.5865256,13.122981 C21.3524686,13.3134004 21.1087215,13.4923795 20.8561944,13.6591131 Z M35.9977302,43.3269249 C36.0240648,43.3283202 36.0505842,43.3290267 36.0772705,43.3290267 C36.8861277,43.3290267 37.5417092,42.6799209 37.5417092,41.8792698 C37.5417092,41.0786187 36.8860298,40.4295129 36.0772705,40.4295129 C35.8441169,40.4295129 35.6236855,40.4834591 35.4280182,40.5794305 C35.6030125,40.9986621 35.7060578,41.4461461 35.7366161,41.9034164 C35.7375957,41.9580657 35.7419063,42.011843 35.7487641,42.064942 C35.7779236,42.50247 35.8633091,42.9254568 35.9977302,43.3269249 Z" id="形状结合" fill="#FFFFFF"></path>
                    <path d="M18.1478856,16.0392525 C22.4471915,22.1210221 30.0307543,32.8529794 33.6185486,37.9255159 C34.0595832,38.5491381 34.6592768,39.0535783 35.3691802,39.3461072 C37.2494012,40.120887 38.5714286,41.9572587 38.5714286,44.0991433 C38.5714286,46.0711757 37.4509141,47.7841772 35.8057771,48.6481695 C35.9870148,48.7434265 36.1744807,48.8283713 36.3673469,48.9022002 C35.726343,49.1465719 35.0244031,49.269436 34.2900358,49.2413361 C34.1706648,49.236761 34.0522605,49.2281287 33.9349632,49.2155749 C33.6837196,49.242305 33.4271161,49.2513139 33.1664538,49.2413135 C30.5118283,49.1394759 28.3357245,47.0274353 28.1836233,44.4017493 C28.1828403,44.3869242 28.1820573,44.3720023 28.1812743,44.3571772 C28.1431022,43.5830756 27.8959623,42.8345545 27.4469995,42.1996924 C25.8319278,39.9162428 11.5367669,19.691058 9.91836735,17.4028606 C12.5336462,16.922935 14.7674975,15.3441127 16.0923633,13.1320755 C16.2640177,13.3747693 16.4535449,13.6427706 16.6592248,13.9336436 C16.8531444,13.6770292 17.0337917,13.4095335 17.2001248,13.1320755 C17.6478381,13.7645156 18.2179132,14.570012 18.8782168,15.5031204 C18.6441598,15.6935398 18.4004127,15.8725189 18.1478856,16.0392525 Z M33.2894214,45.7070643 C33.315756,45.7084596 33.3422754,45.7091661 33.3689617,45.7091661 C34.1778189,45.7091661 34.8334004,45.0600603 34.8334004,44.2594092 C34.8334004,43.4587581 34.177721,42.8096523 33.3689617,42.8096523 C33.1358081,42.8096523 32.9153768,42.8635985 32.7197094,42.9595699 C32.8947037,43.3788015 32.997749,43.8262855 33.0283073,44.2835558 C33.029287,44.3382051 33.0335975,44.3919824 33.0404553,44.4450814 C33.0696148,44.8826094 33.1550003,45.3055962 33.2894214,45.7070643 Z" id="形状结合" fill="#78ABF6"></path>
                    <path d="M0.00197135072,9.12450695 C-0.0241573252,7.982615 0.209691969,6.84477144 0.68909143,5.78239064 C0.854528388,5.41587031 1.42220422,5.36147928 1.68014356,5.68434003 L4.65110251,9.40347581 C4.66747366,9.67610931 4.69871066,9.94864514 4.7450156,10.220111 L6.52950201,12.7523136 C6.67296063,12.9559687 6.91489678,13.0680487 7.16404593,13.0463494 L11.3203387,12.6850257 C11.569588,12.6634259 11.7881821,12.5113316 11.8938726,12.2860766 L13.6571514,8.52900722 C13.7628419,8.30375227 13.7396,8.03957788 13.5961414,7.83602226 L8.67506993,0.853019277 C8.42822493,0.502644808 8.66976036,0.0154053124 9.10003604,0.00356026647 C12.1410182,-0.0799522845 15.1644687,1.30761024 17.0399497,3.9688636 C20.0325446,8.21536234 18.9593099,14.0820444 14.629905,17.0056804 C10.4304344,19.8416233 4.65692622,18.8027431 1.72303715,14.6851464 C0.518848478,12.9951376 -0.0376301408,11.0450306 0.00197135072,9.12450695 Z" id="形状结合" fill="#78ABF6"></path>
                </g>
            </g>
        </g>
    </g>
</svg>