<?xml version="1.0" encoding="utf-8"?>
<!-- Generator: Adobe Illustrator 21.0.0, SVG Export Plug-In . SVG Version: 6.00 Build 0)  -->
<svg version="1.1" id="图层_1" xmlns="http://www.w3.org/2000/svg" xmlns:xlink="http://www.w3.org/1999/xlink" x="0px" y="0px"
	 viewBox="0 0 50 47" style="enable-background:new 0 0 50 47;" xml:space="preserve">
<style type="text/css">
	.st0{fill:#FFFFFF;}
</style>
<path class="st0" d="M15.9,23.9L4.1,34.3c-0.6,0.6-0.7,1.5-0.3,2.2l0.6,0.9l-0.3,0.2l2.4,2.9l0.1-0.1L7.9,42c0.5,0.7,1.4,0.7,2,0.2
	l13-11.4c0.2-0.2,0.4-0.5,0.5-0.8C20.6,27.8,17.9,25.5,15.9,23.9z"/>
<path class="st0" d="M32.6,19.4l10.2-8.2l0.3,0.3l2.7-0.5c0.4-0.1,0.7-0.3,1-0.6l2.8-3.8c0.1-0.2,0.1-0.4,0-0.5l-0.9-1.2l-0.9-1.2
	c-0.1-0.2-0.3-0.2-0.5-0.1l-4.4,1.9c-0.4,0.2-0.7,0.4-0.8,0.8l-0.7,1.8l-11.3,9C30.8,17.9,31.7,18.6,32.6,19.4z"/>
<path class="st0" d="M47.6,35.8c-0.6-2.1-2.3-3.5-4.3-3.8c-0.8-0.1-1.5-0.4-2.1-0.9c-4.8-4-14.9-12.4-20.6-17.1
	c0.2-0.2,0.4-0.5,0.6-0.7c-0.6-0.5-1.2-1-1.7-1.4c0.8-3.3-0.3-6.9-3.1-9.3C13.9,0.5,10.6,0,7.7,0.9C7.3,1,7.2,1.5,7.5,1.8l6.6,5.5
	c0.2,0.2,0.3,0.4,0.2,0.7L13.6,12c0,0.2-0.2,0.4-0.5,0.5L9.2,14C9,14,8.7,14,8.5,13.8l-2.4-2c-0.1-0.3-0.2-0.5-0.3-0.8L2,8.3
	C1.7,8,1.1,8.2,1.1,8.6C0.9,9.8,0.9,10.9,1.3,12c0.5,1.9,1.5,3.6,3.1,4.9c2.8,2.3,6.5,2.7,9.7,1.4c4.6,3.8,20.4,16.9,22.3,18.6
	c0.6,0.5,1,1.2,1.3,1.9c0,0,0,0,0,0c0.8,2.5,3.5,4,6.1,3.4c0.3-0.1,0.5-0.1,0.7-0.2c0.1,0,0.2,0,0.3-0.1c0.7-0.2,1.4-0.5,1.9-0.9
	c-0.2,0-0.4-0.1-0.6-0.1C47.4,39.7,48.1,37.7,47.6,35.8z M43,38.7C42.9,38.7,42.9,38.7,43,38.7c-0.3-0.3-0.5-0.7-0.6-1.1
	c0,0,0-0.1-0.1-0.2c-0.1-0.4-0.4-0.8-0.6-1.2c0.2-0.1,0.4-0.3,0.6-0.3c0.8-0.2,1.6,0.2,1.8,1S43.7,38.5,43,38.7z"/>
</svg>
